<svg xmlns="http://www.w3.org/2000/svg" xmlns:xlink="http://www.w3.org/1999/xlink" width="1140" height="651.3"><rect width="1140" height="651.3" rx="0" ry="0" class="a"/><svg height="651.3" viewBox="0 0 114 65.13" width="1140" xmlns="http://www.w3.org/2000/svg" xmlns:xlink="http://www.w3.org/1999/xlink"><style>@keyframes k{0%{transform:translateX(0)}4.41%{transform:translateX(-114px)}7.62%{transform:translateX(-228px)}8.51%{transform:translateX(-342px)}14.1%{transform:translateX(-456px)}16.48%{transform:translateX(-570px)}18.16%{transform:translateX(-684px)}20.65%{transform:translateX(-798px)}22.81%{transform:translateX(-912px)}25.83%{transform:translateX(-1026px)}27.48%{transform:translateX(-1140px)}29.21%{transform:translateX(-1254px)}30.19%{transform:translateX(-1368px)}33.03%{transform:translateX(-1482px)}34.42%{transform:translateX(-1596px)}36.05%{transform:translateX(-1710px)}36.22%{transform:translateX(-1824px)}38.65%{transform:translateX(-1938px)}41.67%{transform:translateX(-2052px)}43.1%{transform:translateX(-2166px)}45.35%{transform:translateX(-2280px)}47.36%{transform:translateX(-2394px)}49.48%{transform:translateX(-2508px)}50.46%{transform:translateX(-2622px)}56.38%{transform:translateX(-2736px)}57.62%{transform:translateX(-2850px)}58.16%{transform:translateX(-2964px)}58.32%{transform:translateX(-3078px)}58.49%{transform:translateX(-3192px)}58.84%{transform:translateX(-3306px)}59.21%{transform:translateX(-3420px)}59.56%{transform:translateX(-3534px)}62.58%{transform:translateX(-3648px)}62.6%{transform:translateX(-3762px)}62.62%{transform:translateX(-3876px)}62.86%{transform:translateX(-3990px)}62.87%{transform:translateX(-4104px)}62.89%{transform:translateX(-4218px)}62.92%{transform:translateX(-4446px)}62.93%{transform:translateX(-4560px)}83.49%{transform:translateX(-4788px)}84.92%{transform:translateX(-5244px)}84.93%{transform:translateX(-5586px)}85%{transform:translateX(-5700px)}85.01%{transform:translateX(-5814px)}98.24%{transform:translateX(-5928px)}98.25%{transform:translateX(-6042px)}to{transform:translateX(-6156px)}}.a{fill:#282d35}.c{fill:#71bef2;font-weight:700}.d,.e{fill:#b9c0cb}.e{font-weight:700}.f{fill:#a8cc8c}.g{fill:#71bef2}.h{fill:#a8cc8c;font-weight:700}</style><g font-size="1.67" font-family="Monaco,Consolas,Menlo,'Bitstream Vera Sans Mono','Powerline Symbols',monospace"><defs><symbol id="1"><text y="1.67" class="c">$</text></symbol><symbol id="2"><text y="1.67" class="c">$</text><text x="2.004" y="1.67" class="d">tf</text></symbol><symbol id="3"><text y="1.67" class="c">$</text><text x="2.004" y="1.67" class="d">tf</text><text x="5.01" y="1.67" class="d">cmpm-mcpns</text><text x="16.032" y="1.67" class="d">service-infrastructure</text></symbol><symbol id="4"><text y="1.67" class="d">alb</text><text x="8.016" y="1.67" class="d">alb-sg</text><text x="16.032" y="1.67" class="d">ec2</text><text x="24.048" y="1.67" class="d">ec2-sg</text><text x="32.064" y="1.67" class="d">iam</text></symbol><symbol id="5"><text y="1.67" class="c">$</text><text x="2.004" y="1.67" class="d">tf</text><text x="5.01" y="1.67" class="d">cmpm-mcpns</text><text x="16.032" y="1.67" class="d">service-infrastructure</text><text x="39.078" y="1.67" class="d">alb</text></symbol><symbol id="6"><text y="1.67" class="d">dev-or2</text><text x="10.02" y="1.67" class="d">int-or2</text><text x="20.04" y="1.67" class="d">prod-va6</text></symbol><symbol id="7"><text y="1.67" class="c">$</text><text x="2.004" y="1.67" class="d">tf</text><text x="5.01" y="1.67" class="d">cmpm-mcpns</text><text x="16.032" y="1.67" class="d">service-infrastructure</text><text x="39.078" y="1.67" class="d">alb</text><text x="43.086" y="1.67" class="d">dev-or2</text></symbol><symbol id="8"><text y="1.67" class="d">api</text><text x="8.016" y="1.67" class="d">bloom</text><text x="16.032" y="1.67" class="d">kronos</text></symbol><symbol id="9"><text y="1.67" class="c">$</text><text x="2.004" y="1.67" class="d">tf</text><text x="5.01" y="1.67" class="d">cmpm-mcpns</text><text x="16.032" y="1.67" class="d">service-infrastructure</text><text x="39.078" y="1.67" class="d">alb</text><text x="43.086" y="1.67" class="d">dev-or2</text><text x="51.102" y="1.67" class="d">api</text></symbol><symbol id="10"><text y="1.67" class="d">apply</text><text x="14.028" y="1.67" class="d">destroy</text><text x="28.056" y="1.67" class="d">get</text><text x="42.084" y="1.67" class="d">output</text><text x="56.112" y="1.67" class="d">refresh</text></symbol><symbol id="11"><text y="1.67" class="d">apply_tfplan</text><text x="14.028" y="1.67" class="d">fmt</text><text x="28.056" y="1.67" class="d">init</text><text x="42.084" y="1.67" class="d">plan</text></symbol><symbol id="12"><text y="1.67" class="c">$</text><text x="2.004" y="1.67" class="d">tf</text><text x="5.01" y="1.67" class="d">cmpm-mcpns</text><text x="16.032" y="1.67" class="d">service-infrastructure</text><text x="39.078" y="1.67" class="d">alb</text><text x="43.086" y="1.67" class="d">dev-or2</text><text x="51.102" y="1.67" class="d">api</text><text x="55.11" y="1.67" class="d">init</text></symbol><symbol id="13"><text y="1.67" class="e">[tf]</text><text x="5.01" y="1.67" class="d">Detected</text><text x="14.028" y="1.67" class="d">exec</text><text x="19.038" y="1.67" class="d">mode:</text><text x="25.05" y="1.67" class="f">operator</text></symbol><symbol id="14"><text y="1.67" class="e">[tf]</text><text x="5.01" y="1.67" class="d">Checking</text><text x="14.028" y="1.67" class="d">product</text><text x="22.044" y="1.67" class="g">cmpm-mcpns</text><text x="33.066" y="1.67" class="d">is</text><text x="36.072" y="1.67" class="d">valid</text><text x="105.21" y="1.67" class="d">[</text><text x="107.214" y="1.67" class="f">✓</text><text x="109.218" y="1.67" class="d">]</text></symbol><symbol id="15"><text y="1.67" class="e">[tf]</text><text x="5.01" y="1.67" class="d">Checking</text><text x="14.028" y="1.67" class="d">component</text><text x="24.048" y="1.67" class="g">service-infrastructure</text><text x="47.094" y="1.67" class="d">is</text><text x="50.1" y="1.67" class="d">valid</text><text x="105.21" y="1.67" class="d">[</text><text x="107.214" y="1.67" class="f">✓</text><text x="109.218" y="1.67" class="d">]</text></symbol><symbol id="16"><text y="1.67" class="e">[tf]</text><text x="5.01" y="1.67" class="d">Checking</text><text x="14.028" y="1.67" class="d">module</text><text x="21.042" y="1.67" class="g">alb</text><text x="25.05" y="1.67" class="d">exists</text><text x="105.21" y="1.67" class="d">[</text><text x="107.214" y="1.67" class="f">✓</text><text x="109.218" y="1.67" class="d">]</text></symbol><symbol id="17"><text y="1.67" class="e">[tf]</text><text x="5.01" y="1.67" class="d">Checking</text><text x="14.028" y="1.67" class="d">environment</text><text x="26.052" y="1.67" class="g">dev-or2</text><text x="34.068" y="1.67" class="d">exists</text><text x="105.21" y="1.67" class="d">[</text><text x="107.214" y="1.67" class="f">✓</text><text x="109.218" y="1.67" class="d">]</text></symbol><symbol id="18"><text y="1.67" class="e">[tf]</text><text x="5.01" y="1.67" class="d">Checking</text><text x="14.028" y="1.67" class="d">config</text><text x="21.042" y="1.67" class="g">api.tfvars</text><text x="32.064" y="1.67" class="d">exists</text><text x="105.21" y="1.67" class="d">[</text><text x="107.214" y="1.67" class="f">✓</text><text x="109.218" y="1.67" class="d">]</text></symbol><symbol id="19"><text y="1.67" class="e">[tf]</text><text x="5.01" y="1.67" class="e">***</text><text x="9.018" y="1.67" class="e">Terraform</text><text x="19.038" y="1.67" class="e">v0.11.8</text><text x="27.054" y="1.67" class="e">***</text></symbol><symbol id="20"><text y="1.67" class="e">[tf]</text><text x="5.01" y="1.67" class="d">Running</text><text x="13.026" y="1.67" class="d">from</text><text x="18.036" y="1.67" class="d">/Users/lacritea/work/adobe/mcpns-infra/service-infrastructure/terraform/modules/alb</text></symbol><symbol id="21"><text y="1.67" class="e">[tf]</text><text x="5.01" y="1.67" class="d">Executing</text><text x="15.03" y="1.67" class="f">terraform</text><text x="25.05" y="1.67" class="f">init</text></symbol><symbol id="22"><text y="1.67" class="e">Initializing</text><text x="13.026" y="1.67" class="e">modules...</text></symbol><symbol id="23"><text y="1.67" class="d">-</text><text x="2.004" y="1.67" class="d">module.business-alb</text></symbol><symbol id="24"><text y="1.67" class="d">-</text><text x="2.004" y="1.67" class="d">module.business-alb.alb</text></symbol><symbol id="25"><text y="1.67" class="d">-</text><text x="2.004" y="1.67" class="d">module.business-alb.aws_globals</text></symbol><symbol id="26"><text y="1.67" class="e">Initializing</text><text x="13.026" y="1.67" class="e">the</text><text x="17.034" y="1.67" class="e">backend...</text></symbol><symbol id="27"><text y="1.67" class="e">Initializing</text><text x="13.026" y="1.67" class="e">provider</text><text x="22.044" y="1.67" class="e">plugins...</text></symbol><symbol id="28"><text y="1.67" class="h">Terraform</text><text x="10.02" y="1.67" class="h">has</text><text x="14.028" y="1.67" class="h">been</text><text x="19.038" y="1.67" class="h">successfully</text><text x="32.064" y="1.67" class="h">initialized!</text></symbol><symbol id="29"><text y="1.67" class="f">You</text><text x="4.008" y="1.67" class="f">may</text><text x="8.016" y="1.67" class="f">now</text><text x="12.024" y="1.67" class="f">begin</text><text x="18.036" y="1.67" class="f">working</text><text x="26.052" y="1.67" class="f">with</text><text x="31.062" y="1.67" class="f">Terraform.</text><text x="42.084" y="1.67" class="f">Try</text><text x="46.092" y="1.67" class="f">running</text><text x="54.108" y="1.67" class="f">&quot;terraform</text><text x="65.13" y="1.67" class="f">plan&quot;</text><text x="71.142" y="1.67" class="f">to</text><text x="74.148" y="1.67" class="f">see</text></symbol><symbol id="30"><text y="1.67" class="f">any</text><text x="4.008" y="1.67" class="f">changes</text><text x="12.024" y="1.67" class="f">that</text><text x="17.034" y="1.67" class="f">are</text><text x="21.042" y="1.67" class="f">required</text><text x="30.06" y="1.67" class="f">for</text><text x="34.068" y="1.67" class="f">your</text><text x="39.078" y="1.67" class="f">infrastructure.</text><text x="55.11" y="1.67" class="f">All</text><text x="59.118" y="1.67" class="f">Terraform</text><text x="69.138" y="1.67" class="f">commands</text></symbol><symbol id="31"><text y="1.67" class="f">should</text><text x="7.014" y="1.67" class="f">now</text><text x="11.022" y="1.67" class="f">work.</text></symbol><symbol id="32"><text y="1.67" class="f">If</text><text x="3.006" y="1.67" class="f">you</text><text x="7.014" y="1.67" class="f">ever</text><text x="12.024" y="1.67" class="f">set</text><text x="16.032" y="1.67" class="f">or</text><text x="19.038" y="1.67" class="f">change</text><text x="26.052" y="1.67" class="f">modules</text><text x="34.068" y="1.67" class="f">or</text><text x="37.074" y="1.67" class="f">backend</text><text x="45.09" y="1.67" class="f">configuration</text><text x="59.118" y="1.67" class="f">for</text><text x="63.126" y="1.67" class="f">Terraform,</text></symbol><symbol id="33"><text y="1.67" class="f">rerun</text><text x="6.012" y="1.67" class="f">this</text><text x="11.022" y="1.67" class="f">command</text><text x="19.038" y="1.67" class="f">to</text><text x="22.044" y="1.67" class="f">reinitialize</text><text x="35.07" y="1.67" class="f">your</text><text x="40.08" y="1.67" class="f">working</text><text x="48.096" y="1.67" class="f">directory.</text><text x="59.118" y="1.67" class="f">If</text><text x="62.124" y="1.67" class="f">you</text><text x="66.132" y="1.67" class="f">forget,</text><text x="74.148" y="1.67" class="f">other</text></symbol><symbol id="34"><text y="1.67" class="f">commands</text><text x="9.018" y="1.67" class="f">will</text><text x="14.028" y="1.67" class="f">detect</text><text x="21.042" y="1.67" class="f">it</text><text x="24.048" y="1.67" class="f">and</text><text x="28.056" y="1.67" class="f">remind</text><text x="35.07" y="1.67" class="f">you</text><text x="39.078" y="1.67" class="f">to</text><text x="42.084" y="1.67" class="f">do</text><text x="45.09" y="1.67" class="f">so</text><text x="48.096" y="1.67" class="f">if</text><text x="51.102" y="1.67" class="f">necessary.</text></symbol><symbol id="35"><text y="1.67" class="e">[tf]</text><text x="5.01" y="1.67" class="d">Executing</text><text x="15.03" y="1.67" class="f">terraform</text><text x="25.05" y="1.67" class="f">init</text><text x="30.06" y="1.67" class="d">(done)</text><text x="105.21" y="1.67" class="d">[</text><text x="107.214" y="1.67" class="f">✓</text><text x="109.218" y="1.67" class="d">]</text></symbol><symbol id="a"><path fill="transparent" d="M0 0h114v31H0z"/></symbol><symbol id="b"><path fill="#6f7683" d="M0 0h1.102v2.171H0z"/></symbol></defs><path class="a" d="M0 0h114v65.13H0z"/><g style="animation-duration:28.646447s;animation-iteration-count:infinite;animation-name:k;animation-timing-function:steps(1,end)"><svg width="6270"><svg><use xlink:href="#a"/><use xlink:href="#b" x="-.004"/></svg><svg x="114"><use xlink:href="#a"/><use xlink:href="#b" x="1.996"/><use xlink:href="#1"/></svg><svg x="228"><use xlink:href="#a"/><use xlink:href="#b" x="2.996"/><text y="1.67" class="c">$</text><text x="2.004" y="1.67" class="d">t</text></svg><svg x="342"><use xlink:href="#a"/><use xlink:href="#b" x="3.996"/><use xlink:href="#2"/></svg><svg x="456"><use xlink:href="#a"/><use xlink:href="#b" x="4.996"/><use xlink:href="#2"/></svg><svg x="570"><use xlink:href="#a"/><use xlink:href="#b" x="15.996"/><text y="1.67" class="c">$</text><text x="2.004" y="1.67" class="d">tf</text><text x="5.01" y="1.67" class="d">cmpm-mcpns</text></svg><svg x="684"><use xlink:href="#a"/><use xlink:href="#b" x="38.996"/><use xlink:href="#3"/></svg><svg x="798"><use xlink:href="#a"/><use xlink:href="#b" x="38.996"/><use xlink:href="#3"/></svg><svg x="912"><use xlink:href="#a"/><use xlink:href="#b" x="38.996" y="4.317"/><use xlink:href="#3"/><use xlink:href="#4" y="2.171"/><use xlink:href="#3" y="4.342"/></svg><svg x="1026"><use xlink:href="#a"/><use xlink:href="#b" x="39.996" y="4.317"/><use xlink:href="#3"/><use xlink:href="#4" y="2.171"/><text y="6.012" class="c">$</text><text x="2.004" y="6.012" class="d">tf</text><text x="5.01" y="6.012" class="d">cmpm-mcpns</text><text x="16.032" y="6.012" class="d">service-infrastructure</text><text x="39.078" y="6.012" class="d">a</text></svg><svg x="1140"><use xlink:href="#a"/><use xlink:href="#b" x="40.996" y="4.317"/><use xlink:href="#3"/><use xlink:href="#4" y="2.171"/><text y="6.012" class="c">$</text><text x="2.004" y="6.012" class="d">tf</text><text x="5.01" y="6.012" class="d">cmpm-mcpns</text><text x="16.032" y="6.012" class="d">service-infrastructure</text><text x="39.078" y="6.012" class="d">al</text></svg><svg x="1254"><use xlink:href="#a"/><use xlink:href="#b" x="41.996" y="4.317"/><use xlink:href="#3"/><use xlink:href="#4" y="2.171"/><use xlink:href="#5" y="4.342"/></svg><svg x="1368"><use xlink:href="#a"/><use xlink:href="#b" x="42.996" y="4.317"/><use xlink:href="#3"/><use xlink:href="#4" y="2.171"/><use xlink:href="#5" y="4.342"/></svg><svg x="1482"><use xlink:href="#a"/><use xlink:href="#b" x="42.996" y="4.317"/><use xlink:href="#3"/><use xlink:href="#4" y="2.171"/><use xlink:href="#5" y="4.342"/></svg><svg x="1596"><use xlink:href="#a"/><use xlink:href="#b" x="42.996" y="8.659"/><use xlink:href="#3"/><use xlink:href="#4" y="2.171"/><use xlink:href="#5" y="4.342"/><use xlink:href="#6" y="6.513"/><use xlink:href="#5" y="8.684"/></svg><svg x="1710"><use xlink:href="#a"/><use xlink:href="#b" x="43.996" y="8.659"/><use xlink:href="#3"/><use xlink:href="#4" y="2.171"/><use xlink:href="#5" y="4.342"/><use xlink:href="#6" y="6.513"/><text y="10.354" class="c">$</text><text x="2.004" y="10.354" class="d">tf</text><text x="5.01" y="10.354" class="d">cmpm-mcpns</text><text x="16.032" y="10.354" class="d">service-infrastructure</text><text x="39.078" y="10.354" class="d">alb</text><text x="43.086" y="10.354" class="d">d</text></svg><svg x="1824"><use xlink:href="#a"/><use xlink:href="#b" x="44.996" y="8.659"/><use xlink:href="#3"/><use xlink:href="#4" y="2.171"/><use xlink:href="#5" y="4.342"/><use xlink:href="#6" y="6.513"/><text y="10.354" class="c">$</text><text x="2.004" y="10.354" class="d">tf</text><text x="5.01" y="10.354" class="d">cmpm-mcpns</text><text x="16.032" y="10.354" class="d">service-infrastructure</text><text x="39.078" y="10.354" class="d">alb</text><text x="43.086" y="10.354" class="d">de</text></svg><svg x="1938"><use xlink:href="#a"/><use xlink:href="#b" x="50.996" y="8.659"/><use xlink:href="#3"/><use xlink:href="#4" y="2.171"/><use xlink:href="#5" y="4.342"/><use xlink:href="#6" y="6.513"/><use xlink:href="#7" y="8.684"/></svg><svg x="2052"><use xlink:href="#a"/><use xlink:href="#b" x="50.996" y="8.659"/><use xlink:href="#3"/><use xlink:href="#4" y="2.171"/><use xlink:href="#5" y="4.342"/><use xlink:href="#6" y="6.513"/><use xlink:href="#7" y="8.684"/></svg><svg x="2166"><use xlink:href="#a"/><use xlink:href="#b" x="50.996" y="13.001"/><use xlink:href="#3"/><use xlink:href="#4" y="2.171"/><use xlink:href="#5" y="4.342"/><use xlink:href="#6" y="6.513"/><use xlink:href="#7" y="8.684"/><use xlink:href="#8" y="10.855"/><use xlink:href="#7" y="13.026"/></svg><svg x="2280"><use xlink:href="#a"/><use xlink:href="#b" x="51.996" y="13.001"/><use xlink:href="#3"/><use xlink:href="#4" y="2.171"/><use xlink:href="#5" y="4.342"/><use xlink:href="#6" y="6.513"/><use xlink:href="#7" y="8.684"/><use xlink:href="#8" y="10.855"/><text y="14.696" class="c">$</text><text x="2.004" y="14.696" class="d">tf</text><text x="5.01" y="14.696" class="d">cmpm-mcpns</text><text x="16.032" y="14.696" class="d">service-infrastructure</text><text x="39.078" y="14.696" class="d">alb</text><text x="43.086" y="14.696" class="d">dev-or2</text><text x="51.102" y="14.696" class="d">a</text></svg><svg x="2394"><use xlink:href="#a"/><use xlink:href="#b" x="54.996" y="13.001"/><use xlink:href="#3"/><use xlink:href="#4" y="2.171"/><use xlink:href="#5" y="4.342"/><use xlink:href="#6" y="6.513"/><use xlink:href="#7" y="8.684"/><use xlink:href="#8" y="10.855"/><use xlink:href="#9" y="13.026"/></svg><svg x="2508"><use xlink:href="#a"/><use xlink:href="#b" x="54.996" y="13.001"/><use xlink:href="#3"/><use xlink:href="#4" y="2.171"/><use xlink:href="#5" y="4.342"/><use xlink:href="#6" y="6.513"/><use xlink:href="#7" y="8.684"/><use xlink:href="#8" y="10.855"/><use xlink:href="#9" y="13.026"/></svg><svg x="2622"><use xlink:href="#a"/><use xlink:href="#b" x="54.996" y="19.514"/><use xlink:href="#3"/><use xlink:href="#4" y="2.171"/><use xlink:href="#5" y="4.342"/><use xlink:href="#6" y="6.513"/><use xlink:href="#7" y="8.684"/><use xlink:href="#8" y="10.855"/><use xlink:href="#9" y="13.026"/><use xlink:href="#10" y="15.197"/><use xlink:href="#11" y="17.368"/><use xlink:href="#9" y="19.539"/></svg><svg x="2736"><use xlink:href="#a"/><use xlink:href="#b" x="55.996" y="19.514"/><use xlink:href="#3"/><use xlink:href="#4" y="2.171"/><use xlink:href="#5" y="4.342"/><use xlink:href="#6" y="6.513"/><use xlink:href="#7" y="8.684"/><use xlink:href="#8" y="10.855"/><use xlink:href="#9" y="13.026"/><use xlink:href="#10" y="15.197"/><use xlink:href="#11" y="17.368"/><text y="21.209" class="c">$</text><text x="2.004" y="21.209" class="d">tf</text><text x="5.01" y="21.209" class="d">cmpm-mcpns</text><text x="16.032" y="21.209" class="d">service-infrastructure</text><text x="39.078" y="21.209" class="d">alb</text><text x="43.086" y="21.209" class="d">dev-or2</text><text x="51.102" y="21.209" class="d">api</text><text x="55.11" y="21.209" class="d">i</text></svg><svg x="2850"><use xlink:href="#a"/><use xlink:href="#b" x="-.004" y="21.685"/><use xlink:href="#3"/><use xlink:href="#4" y="2.171"/><use xlink:href="#5" y="4.342"/><use xlink:href="#6" y="6.513"/><use xlink:href="#7" y="8.684"/><use xlink:href="#8" y="10.855"/><use xlink:href="#9" y="13.026"/><use xlink:href="#10" y="15.197"/><use xlink:href="#11" y="17.368"/><use xlink:href="#12" y="19.539"/></svg><svg x="2964"><use xlink:href="#a"/><use xlink:href="#b" x="-.004" y="23.856"/><use xlink:href="#3"/><use xlink:href="#4" y="2.171"/><use xlink:href="#5" y="4.342"/><use xlink:href="#6" y="6.513"/><use xlink:href="#7" y="8.684"/><use xlink:href="#8" y="10.855"/><use xlink:href="#9" y="13.026"/><use xlink:href="#10" y="15.197"/><use xlink:href="#11" y="17.368"/><use xlink:href="#12" y="19.539"/><use xlink:href="#13" y="21.71"/></svg><svg x="3078"><use xlink:href="#a"/><use xlink:href="#b" x="-.004" y="26.027"/><use xlink:href="#3"/><use xlink:href="#4" y="2.171"/><use xlink:href="#5" y="4.342"/><use xlink:href="#6" y="6.513"/><use xlink:href="#7" y="8.684"/><use xlink:href="#8" y="10.855"/><use xlink:href="#9" y="13.026"/><use xlink:href="#10" y="15.197"/><use xlink:href="#11" y="17.368"/><use xlink:href="#12" y="19.539"/><use xlink:href="#13" y="21.71"/><use xlink:href="#14" y="23.881"/></svg><svg x="3192"><use xlink:href="#a"/><use xlink:href="#b" x="-.004" y="28.198"/><use xlink:href="#3"/><use xlink:href="#4" y="2.171"/><use xlink:href="#5" y="4.342"/><use xlink:href="#6" y="6.513"/><use xlink:href="#7" y="8.684"/><use xlink:href="#8" y="10.855"/><use xlink:href="#9" y="13.026"/><use xlink:href="#10" y="15.197"/><use xlink:href="#11" y="17.368"/><use xlink:href="#12" y="19.539"/><use xlink:href="#13" y="21.71"/><use xlink:href="#14" y="23.881"/><use xlink:href="#15" y="26.052"/></svg><svg x="3306"><use xlink:href="#a"/><use xlink:href="#b" x="-.004" y="30.369"/><use xlink:href="#3"/><use xlink:href="#4" y="2.171"/><use xlink:href="#5" y="4.342"/><use xlink:href="#6" y="6.513"/><use xlink:href="#7" y="8.684"/><use xlink:href="#8" y="10.855"/><use xlink:href="#9" y="13.026"/><use xlink:href="#10" y="15.197"/><use xlink:href="#11" y="17.368"/><use xlink:href="#12" y="19.539"/><use xlink:href="#13" y="21.71"/><use xlink:href="#14" y="23.881"/><use xlink:href="#15" y="26.052"/><use xlink:href="#16" y="28.223"/></svg><svg x="3420"><use xlink:href="#a"/><use xlink:href="#b" x="-.004" y="32.54"/><use xlink:href="#3"/><use xlink:href="#4" y="2.171"/><use xlink:href="#5" y="4.342"/><use xlink:href="#6" y="6.513"/><use xlink:href="#7" y="8.684"/><use xlink:href="#8" y="10.855"/><use xlink:href="#9" y="13.026"/><use xlink:href="#10" y="15.197"/><use xlink:href="#11" y="17.368"/><use xlink:href="#12" y="19.539"/><use xlink:href="#13" y="21.71"/><use xlink:href="#14" y="23.881"/><use xlink:href="#15" y="26.052"/><use xlink:href="#16" y="28.223"/><use xlink:href="#17" y="30.394"/></svg><svg x="3534"><use xlink:href="#a"/><use xlink:href="#b" x="-.004" y="34.711"/><use xlink:href="#3"/><use xlink:href="#4" y="2.171"/><use xlink:href="#5" y="4.342"/><use xlink:href="#6" y="6.513"/><use xlink:href="#7" y="8.684"/><use xlink:href="#8" y="10.855"/><use xlink:href="#9" y="13.026"/><use xlink:href="#10" y="15.197"/><use xlink:href="#11" y="17.368"/><use xlink:href="#12" y="19.539"/><use xlink:href="#13" y="21.71"/><use xlink:href="#14" y="23.881"/><use xlink:href="#15" y="26.052"/><use xlink:href="#16" y="28.223"/><use xlink:href="#17" y="30.394"/><use xlink:href="#18" y="32.565"/></svg><svg x="3648"><use xlink:href="#a"/><use xlink:href="#b" x="-.004" y="36.882"/><use xlink:href="#3"/><use xlink:href="#4" y="2.171"/><use xlink:href="#5" y="4.342"/><use xlink:href="#6" y="6.513"/><use xlink:href="#7" y="8.684"/><use xlink:href="#8" y="10.855"/><use xlink:href="#9" y="13.026"/><use xlink:href="#10" y="15.197"/><use xlink:href="#11" y="17.368"/><use xlink:href="#12" y="19.539"/><use xlink:href="#13" y="21.71"/><use xlink:href="#14" y="23.881"/><use xlink:href="#15" y="26.052"/><use xlink:href="#16" y="28.223"/><use xlink:href="#17" y="30.394"/><use xlink:href="#18" y="32.565"/><use xlink:href="#19" y="34.736"/></svg><svg x="3762"><use xlink:href="#a"/><use xlink:href="#b" x="-.004" y="39.053"/><use xlink:href="#3"/><use xlink:href="#4" y="2.171"/><use xlink:href="#5" y="4.342"/><use xlink:href="#6" y="6.513"/><use xlink:href="#7" y="8.684"/><use xlink:href="#8" y="10.855"/><use xlink:href="#9" y="13.026"/><use xlink:href="#10" y="15.197"/><use xlink:href="#11" y="17.368"/><use xlink:href="#12" y="19.539"/><use xlink:href="#13" y="21.71"/><use xlink:href="#14" y="23.881"/><use xlink:href="#15" y="26.052"/><use xlink:href="#16" y="28.223"/><use xlink:href="#17" y="30.394"/><use xlink:href="#18" y="32.565"/><use xlink:href="#19" y="34.736"/><use xlink:href="#20" y="36.907"/></svg><svg x="3876"><use xlink:href="#a"/><use xlink:href="#b" x="-.004" y="41.224"/><use xlink:href="#3"/><use xlink:href="#4" y="2.171"/><use xlink:href="#5" y="4.342"/><use xlink:href="#6" y="6.513"/><use xlink:href="#7" y="8.684"/><use xlink:href="#8" y="10.855"/><use xlink:href="#9" y="13.026"/><use xlink:href="#10" y="15.197"/><use xlink:href="#11" y="17.368"/><use xlink:href="#12" y="19.539"/><use xlink:href="#13" y="21.71"/><use xlink:href="#14" y="23.881"/><use xlink:href="#15" y="26.052"/><use xlink:href="#16" y="28.223"/><use xlink:href="#17" y="30.394"/><use xlink:href="#18" y="32.565"/><use xlink:href="#19" y="34.736"/><use xlink:href="#20" y="36.907"/><use xlink:href="#21" y="39.078"/></svg><svg x="3990"><use xlink:href="#a"/><use xlink:href="#b" x="-.004" y="43.395"/><use xlink:href="#3"/><use xlink:href="#4" y="2.171"/><use xlink:href="#5" y="4.342"/><use xlink:href="#6" y="6.513"/><use xlink:href="#7" y="8.684"/><use xlink:href="#8" y="10.855"/><use xlink:href="#9" y="13.026"/><use xlink:href="#10" y="15.197"/><use xlink:href="#11" y="17.368"/><use xlink:href="#12" y="19.539"/><use xlink:href="#13" y="21.71"/><use xlink:href="#14" y="23.881"/><use xlink:href="#15" y="26.052"/><use xlink:href="#16" y="28.223"/><use xlink:href="#17" y="30.394"/><use xlink:href="#18" y="32.565"/><use xlink:href="#19" y="34.736"/><use xlink:href="#20" y="36.907"/><use xlink:href="#21" y="39.078"/><use xlink:href="#22" y="41.249"/></svg><svg x="4104"><use xlink:href="#a"/><use xlink:href="#b" x="-.004" y="45.566"/><use xlink:href="#3"/><use xlink:href="#4" y="2.171"/><use xlink:href="#5" y="4.342"/><use xlink:href="#6" y="6.513"/><use xlink:href="#7" y="8.684"/><use xlink:href="#8" y="10.855"/><use xlink:href="#9" y="13.026"/><use xlink:href="#10" y="15.197"/><use xlink:href="#11" y="17.368"/><use xlink:href="#12" y="19.539"/><use xlink:href="#13" y="21.71"/><use xlink:href="#14" y="23.881"/><use xlink:href="#15" y="26.052"/><use xlink:href="#16" y="28.223"/><use xlink:href="#17" y="30.394"/><use xlink:href="#18" y="32.565"/><use xlink:href="#19" y="34.736"/><use xlink:href="#20" y="36.907"/><use xlink:href="#21" y="39.078"/><use xlink:href="#22" y="41.249"/><use xlink:href="#23" y="43.42"/></svg><svg x="4218"><use xlink:href="#a"/><use xlink:href="#b" x="-.004" y="47.737"/><use xlink:href="#3"/><use xlink:href="#4" y="2.171"/><use xlink:href="#5" y="4.342"/><use xlink:href="#6" y="6.513"/><use xlink:href="#7" y="8.684"/><use xlink:href="#8" y="10.855"/><use xlink:href="#9" y="13.026"/><use xlink:href="#10" y="15.197"/><use xlink:href="#11" y="17.368"/><use xlink:href="#12" y="19.539"/><use xlink:href="#13" y="21.71"/><use xlink:href="#14" y="23.881"/><use xlink:href="#15" y="26.052"/><use xlink:href="#16" y="28.223"/><use xlink:href="#17" y="30.394"/><use xlink:href="#18" y="32.565"/><use xlink:href="#19" y="34.736"/><use xlink:href="#20" y="36.907"/><use xlink:href="#21" y="39.078"/><use xlink:href="#22" y="41.249"/><use xlink:href="#23" y="43.42"/><use xlink:href="#24" y="45.591"/></svg><svg x="4332"><use xlink:href="#a"/><use xlink:href="#b" x="-.004" y="49.908"/><use xlink:href="#3"/><use xlink:href="#4" y="2.171"/><use xlink:href="#5" y="4.342"/><use xlink:href="#6" y="6.513"/><use xlink:href="#7" y="8.684"/><use xlink:href="#8" y="10.855"/><use xlink:href="#9" y="13.026"/><use xlink:href="#10" y="15.197"/><use xlink:href="#11" y="17.368"/><use xlink:href="#12" y="19.539"/><use xlink:href="#13" y="21.71"/><use xlink:href="#14" y="23.881"/><use xlink:href="#15" y="26.052"/><use xlink:href="#16" y="28.223"/><use xlink:href="#17" y="30.394"/><use xlink:href="#18" y="32.565"/><use xlink:href="#19" y="34.736"/><use xlink:href="#20" y="36.907"/><use xlink:href="#21" y="39.078"/><use xlink:href="#22" y="41.249"/><use xlink:href="#23" y="43.42"/><use xlink:href="#24" y="45.591"/><use xlink:href="#25" y="47.762"/></svg><svg x="4446"><use xlink:href="#a"/><use xlink:href="#b" x="-.004" y="52.079"/><use xlink:href="#3"/><use xlink:href="#4" y="2.171"/><use xlink:href="#5" y="4.342"/><use xlink:href="#6" y="6.513"/><use xlink:href="#7" y="8.684"/><use xlink:href="#8" y="10.855"/><use xlink:href="#9" y="13.026"/><use xlink:href="#10" y="15.197"/><use xlink:href="#11" y="17.368"/><use xlink:href="#12" y="19.539"/><use xlink:href="#13" y="21.71"/><use xlink:href="#14" y="23.881"/><use xlink:href="#15" y="26.052"/><use xlink:href="#16" y="28.223"/><use xlink:href="#17" y="30.394"/><use xlink:href="#18" y="32.565"/><use xlink:href="#19" y="34.736"/><use xlink:href="#20" y="36.907"/><use xlink:href="#21" y="39.078"/><use xlink:href="#22" y="41.249"/><use xlink:href="#23" y="43.42"/><use xlink:href="#24" y="45.591"/><use xlink:href="#25" y="47.762"/></svg><svg x="4560"><use xlink:href="#a"/><use xlink:href="#b" x="-.004" y="54.25"/><use xlink:href="#3"/><use xlink:href="#4" y="2.171"/><use xlink:href="#5" y="4.342"/><use xlink:href="#6" y="6.513"/><use xlink:href="#7" y="8.684"/><use xlink:href="#8" y="10.855"/><use xlink:href="#9" y="13.026"/><use xlink:href="#10" y="15.197"/><use xlink:href="#11" y="17.368"/><use xlink:href="#12" y="19.539"/><use xlink:href="#13" y="21.71"/><use xlink:href="#14" y="23.881"/><use xlink:href="#15" y="26.052"/><use xlink:href="#16" y="28.223"/><use xlink:href="#17" y="30.394"/><use xlink:href="#18" y="32.565"/><use xlink:href="#19" y="34.736"/><use xlink:href="#20" y="36.907"/><use xlink:href="#21" y="39.078"/><use xlink:href="#22" y="41.249"/><use xlink:href="#23" y="43.42"/><use xlink:href="#24" y="45.591"/><use xlink:href="#25" y="47.762"/><use xlink:href="#26" y="52.104"/></svg><svg x="4674"><use xlink:href="#a"/><use xlink:href="#b" x="-.004" y="56.421"/><use xlink:href="#3"/><use xlink:href="#4" y="2.171"/><use xlink:href="#5" y="4.342"/><use xlink:href="#6" y="6.513"/><use xlink:href="#7" y="8.684"/><use xlink:href="#8" y="10.855"/><use xlink:href="#9" y="13.026"/><use xlink:href="#10" y="15.197"/><use xlink:href="#11" y="17.368"/><use xlink:href="#12" y="19.539"/><use xlink:href="#13" y="21.71"/><use xlink:href="#14" y="23.881"/><use xlink:href="#15" y="26.052"/><use xlink:href="#16" y="28.223"/><use xlink:href="#17" y="30.394"/><use xlink:href="#18" y="32.565"/><use xlink:href="#19" y="34.736"/><use xlink:href="#20" y="36.907"/><use xlink:href="#21" y="39.078"/><use xlink:href="#22" y="41.249"/><use xlink:href="#23" y="43.42"/><use xlink:href="#24" y="45.591"/><use xlink:href="#25" y="47.762"/><use xlink:href="#26" y="52.104"/></svg><svg x="4788"><use xlink:href="#a"/><use xlink:href="#b" x="-.004" y="58.592"/><use xlink:href="#3"/><use xlink:href="#4" y="2.171"/><use xlink:href="#5" y="4.342"/><use xlink:href="#6" y="6.513"/><use xlink:href="#7" y="8.684"/><use xlink:href="#8" y="10.855"/><use xlink:href="#9" y="13.026"/><use xlink:href="#10" y="15.197"/><use xlink:href="#11" y="17.368"/><use xlink:href="#12" y="19.539"/><use xlink:href="#13" y="21.71"/><use xlink:href="#14" y="23.881"/><use xlink:href="#15" y="26.052"/><use xlink:href="#16" y="28.223"/><use xlink:href="#17" y="30.394"/><use xlink:href="#18" y="32.565"/><use xlink:href="#19" y="34.736"/><use xlink:href="#20" y="36.907"/><use xlink:href="#21" y="39.078"/><use xlink:href="#22" y="41.249"/><use xlink:href="#23" y="43.42"/><use xlink:href="#24" y="45.591"/><use xlink:href="#25" y="47.762"/><use xlink:href="#26" y="52.104"/><use xlink:href="#27" y="56.446"/></svg><svg x="4902"><use xlink:href="#a"/><use xlink:href="#b" x="-.004" y="60.763"/><use xlink:href="#3"/><use xlink:href="#4" y="2.171"/><use xlink:href="#5" y="4.342"/><use xlink:href="#6" y="6.513"/><use xlink:href="#7" y="8.684"/><use xlink:href="#8" y="10.855"/><use xlink:href="#9" y="13.026"/><use xlink:href="#10" y="15.197"/><use xlink:href="#11" y="17.368"/><use xlink:href="#12" y="19.539"/><use xlink:href="#13" y="21.71"/><use xlink:href="#14" y="23.881"/><use xlink:href="#15" y="26.052"/><use xlink:href="#16" y="28.223"/><use xlink:href="#17" y="30.394"/><use xlink:href="#18" y="32.565"/><use xlink:href="#19" y="34.736"/><use xlink:href="#20" y="36.907"/><use xlink:href="#21" y="39.078"/><use xlink:href="#22" y="41.249"/><use xlink:href="#23" y="43.42"/><use xlink:href="#24" y="45.591"/><use xlink:href="#25" y="47.762"/><use xlink:href="#26" y="52.104"/><use xlink:href="#27" y="56.446"/></svg><svg x="5016"><use xlink:href="#a"/><use xlink:href="#b" x="-.004" y="65.105"/><use xlink:href="#3"/><use xlink:href="#4" y="2.171"/><use xlink:href="#5" y="4.342"/><use xlink:href="#6" y="6.513"/><use xlink:href="#7" y="8.684"/><use xlink:href="#8" y="10.855"/><use xlink:href="#9" y="13.026"/><use xlink:href="#10" y="15.197"/><use xlink:href="#11" y="17.368"/><use xlink:href="#12" y="19.539"/><use xlink:href="#13" y="21.71"/><use xlink:href="#14" y="23.881"/><use xlink:href="#15" y="26.052"/><use xlink:href="#16" y="28.223"/><use xlink:href="#17" y="30.394"/><use xlink:href="#18" y="32.565"/><use xlink:href="#19" y="34.736"/><use xlink:href="#20" y="36.907"/><use xlink:href="#21" y="39.078"/><use xlink:href="#22" y="41.249"/><use xlink:href="#23" y="43.42"/><use xlink:href="#24" y="45.591"/><use xlink:href="#25" y="47.762"/><use xlink:href="#26" y="52.104"/><use xlink:href="#27" y="56.446"/><use xlink:href="#28" y="60.788"/></svg><svg x="5130"><use xlink:href="#a"/><use xlink:href="#b" x="-.004" y="65.105"/><use xlink:href="#5"/><use xlink:href="#6" y="2.171"/><use xlink:href="#7" y="4.342"/><use xlink:href="#8" y="6.513"/><use xlink:href="#9" y="8.684"/><use xlink:href="#10" y="10.855"/><use xlink:href="#11" y="13.026"/><use xlink:href="#12" y="15.197"/><use xlink:href="#13" y="17.368"/><use xlink:href="#14" y="19.539"/><use xlink:href="#15" y="21.71"/><use xlink:href="#16" y="23.881"/><use xlink:href="#17" y="26.052"/><use xlink:href="#18" y="28.223"/><use xlink:href="#19" y="30.394"/><use xlink:href="#20" y="32.565"/><use xlink:href="#21" y="34.736"/><use xlink:href="#22" y="36.907"/><use xlink:href="#23" y="39.078"/><use xlink:href="#24" y="41.249"/><use xlink:href="#25" y="43.42"/><use xlink:href="#26" y="47.762"/><use xlink:href="#27" y="52.104"/><use xlink:href="#28" y="56.446"/><use xlink:href="#29" y="60.788"/><use xlink:href="#30" y="62.959"/></svg><svg x="5244"><use xlink:href="#a"/><use xlink:href="#b" x="-.004" y="65.105"/><use xlink:href="#7"/><use xlink:href="#8" y="2.171"/><use xlink:href="#9" y="4.342"/><use xlink:href="#10" y="6.513"/><use xlink:href="#11" y="8.684"/><use xlink:href="#12" y="10.855"/><use xlink:href="#13" y="13.026"/><use xlink:href="#14" y="15.197"/><use xlink:href="#15" y="17.368"/><use xlink:href="#16" y="19.539"/><use xlink:href="#17" y="21.71"/><use xlink:href="#18" y="23.881"/><use xlink:href="#19" y="26.052"/><use xlink:href="#20" y="28.223"/><use xlink:href="#21" y="30.394"/><use xlink:href="#22" y="32.565"/><use xlink:href="#23" y="34.736"/><use xlink:href="#24" y="36.907"/><use xlink:href="#25" y="39.078"/><use xlink:href="#26" y="43.42"/><use xlink:href="#27" y="47.762"/><use xlink:href="#28" y="52.104"/><use xlink:href="#29" y="56.446"/><use xlink:href="#30" y="58.617"/><use xlink:href="#31" y="60.788"/></svg><svg x="5358"><use xlink:href="#a"/><use xlink:href="#b" x="-.004" y="65.105"/><use xlink:href="#8"/><use xlink:href="#9" y="2.171"/><use xlink:href="#10" y="4.342"/><use xlink:href="#11" y="6.513"/><use xlink:href="#12" y="8.684"/><use xlink:href="#13" y="10.855"/><use xlink:href="#14" y="13.026"/><use xlink:href="#15" y="15.197"/><use xlink:href="#16" y="17.368"/><use xlink:href="#17" y="19.539"/><use xlink:href="#18" y="21.71"/><use xlink:href="#19" y="23.881"/><use xlink:href="#20" y="26.052"/><use xlink:href="#21" y="28.223"/><use xlink:href="#22" y="30.394"/><use xlink:href="#23" y="32.565"/><use xlink:href="#24" y="34.736"/><use xlink:href="#25" y="36.907"/><use xlink:href="#26" y="41.249"/><use xlink:href="#27" y="45.591"/><use xlink:href="#28" y="49.933"/><use xlink:href="#29" y="54.275"/><use xlink:href="#30" y="56.446"/><use xlink:href="#31" y="58.617"/><use xlink:href="#32" y="62.959"/></svg><svg x="5472"><use xlink:href="#a"/><use xlink:href="#b" x="-.004" y="65.105"/><use xlink:href="#9"/><use xlink:href="#10" y="2.171"/><use xlink:href="#11" y="4.342"/><use xlink:href="#12" y="6.513"/><use xlink:href="#13" y="8.684"/><use xlink:href="#14" y="10.855"/><use xlink:href="#15" y="13.026"/><use xlink:href="#16" y="15.197"/><use xlink:href="#17" y="17.368"/><use xlink:href="#18" y="19.539"/><use xlink:href="#19" y="21.71"/><use xlink:href="#20" y="23.881"/><use xlink:href="#21" y="26.052"/><use xlink:href="#22" y="28.223"/><use xlink:href="#23" y="30.394"/><use xlink:href="#24" y="32.565"/><use xlink:href="#25" y="34.736"/><use xlink:href="#26" y="39.078"/><use xlink:href="#27" y="43.42"/><use xlink:href="#28" y="47.762"/><use xlink:href="#29" y="52.104"/><use xlink:href="#30" y="54.275"/><use xlink:href="#31" y="56.446"/><use xlink:href="#32" y="60.788"/><use xlink:href="#33" y="62.959"/></svg><svg x="5586"><use xlink:href="#a"/><use xlink:href="#b" x="-.004" y="65.105"/><use xlink:href="#10"/><use xlink:href="#11" y="2.171"/><use xlink:href="#12" y="4.342"/><use xlink:href="#13" y="6.513"/><use xlink:href="#14" y="8.684"/><use xlink:href="#15" y="10.855"/><use xlink:href="#16" y="13.026"/><use xlink:href="#17" y="15.197"/><use xlink:href="#18" y="17.368"/><use xlink:href="#19" y="19.539"/><use xlink:href="#20" y="21.71"/><use xlink:href="#21" y="23.881"/><use xlink:href="#22" y="26.052"/><use xlink:href="#23" y="28.223"/><use xlink:href="#24" y="30.394"/><use xlink:href="#25" y="32.565"/><use xlink:href="#26" y="36.907"/><use xlink:href="#27" y="41.249"/><use xlink:href="#28" y="45.591"/><use xlink:href="#29" y="49.933"/><use xlink:href="#30" y="52.104"/><use xlink:href="#31" y="54.275"/><use xlink:href="#32" y="58.617"/><use xlink:href="#33" y="60.788"/><use xlink:href="#34" y="62.959"/></svg><svg x="5700"><use xlink:href="#a"/><use xlink:href="#b" x="-.004" y="65.105"/><use xlink:href="#11"/><use xlink:href="#12" y="2.171"/><use xlink:href="#13" y="4.342"/><use xlink:href="#14" y="6.513"/><use xlink:href="#15" y="8.684"/><use xlink:href="#16" y="10.855"/><use xlink:href="#17" y="13.026"/><use xlink:href="#18" y="15.197"/><use xlink:href="#19" y="17.368"/><use xlink:href="#20" y="19.539"/><use xlink:href="#21" y="21.71"/><use xlink:href="#22" y="23.881"/><use xlink:href="#23" y="26.052"/><use xlink:href="#24" y="28.223"/><use xlink:href="#25" y="30.394"/><use xlink:href="#26" y="34.736"/><use xlink:href="#27" y="39.078"/><use xlink:href="#28" y="43.42"/><use xlink:href="#29" y="47.762"/><use xlink:href="#30" y="49.933"/><use xlink:href="#31" y="52.104"/><use xlink:href="#32" y="56.446"/><use xlink:href="#33" y="58.617"/><use xlink:href="#34" y="60.788"/><use xlink:href="#35" y="62.959"/></svg><svg x="5814"><use xlink:href="#a"/><use xlink:href="#b" x="1.996" y="65.105"/><use xlink:href="#11"/><use xlink:href="#12" y="2.171"/><use xlink:href="#13" y="4.342"/><use xlink:href="#14" y="6.513"/><use xlink:href="#15" y="8.684"/><use xlink:href="#16" y="10.855"/><use xlink:href="#17" y="13.026"/><use xlink:href="#18" y="15.197"/><use xlink:href="#19" y="17.368"/><use xlink:href="#20" y="19.539"/><use xlink:href="#21" y="21.71"/><use xlink:href="#22" y="23.881"/><use xlink:href="#23" y="26.052"/><use xlink:href="#24" y="28.223"/><use xlink:href="#25" y="30.394"/><use xlink:href="#26" y="34.736"/><use xlink:href="#27" y="39.078"/><use xlink:href="#28" y="43.42"/><use xlink:href="#29" y="47.762"/><use xlink:href="#30" y="49.933"/><use xlink:href="#31" y="52.104"/><use xlink:href="#32" y="56.446"/><use xlink:href="#33" y="58.617"/><use xlink:href="#34" y="60.788"/><use xlink:href="#35" y="62.959"/><use xlink:href="#1" y="65.13"/></svg><svg x="5928"><use xlink:href="#a"/><use xlink:href="#b" x="-.004" y="65.105"/><use xlink:href="#12"/><use xlink:href="#13" y="2.171"/><use xlink:href="#14" y="4.342"/><use xlink:href="#15" y="6.513"/><use xlink:href="#16" y="8.684"/><use xlink:href="#17" y="10.855"/><use xlink:href="#18" y="13.026"/><use xlink:href="#19" y="15.197"/><use xlink:href="#20" y="17.368"/><use xlink:href="#21" y="19.539"/><use xlink:href="#22" y="21.71"/><use xlink:href="#23" y="23.881"/><use xlink:href="#24" y="26.052"/><use xlink:href="#25" y="28.223"/><use xlink:href="#26" y="32.565"/><use xlink:href="#27" y="36.907"/><use xlink:href="#28" y="41.249"/><use xlink:href="#29" y="45.591"/><use xlink:href="#30" y="47.762"/><use xlink:href="#31" y="49.933"/><use xlink:href="#32" y="54.275"/><use xlink:href="#33" y="56.446"/><use xlink:href="#34" y="58.617"/><use xlink:href="#35" y="60.788"/><use xlink:href="#1" y="62.959"/></svg><svg x="6042"><use xlink:href="#a"/><use xlink:href="#b" x="1.996" y="65.105"/><use xlink:href="#12"/><use xlink:href="#13" y="2.171"/><use xlink:href="#14" y="4.342"/><use xlink:href="#15" y="6.513"/><use xlink:href="#16" y="8.684"/><use xlink:href="#17" y="10.855"/><use xlink:href="#18" y="13.026"/><use xlink:href="#19" y="15.197"/><use xlink:href="#20" y="17.368"/><use xlink:href="#21" y="19.539"/><use xlink:href="#22" y="21.71"/><use xlink:href="#23" y="23.881"/><use xlink:href="#24" y="26.052"/><use xlink:href="#25" y="28.223"/><use xlink:href="#26" y="32.565"/><use xlink:href="#27" y="36.907"/><use xlink:href="#28" y="41.249"/><use xlink:href="#29" y="45.591"/><use xlink:href="#30" y="47.762"/><use xlink:href="#31" y="49.933"/><use xlink:href="#32" y="54.275"/><use xlink:href="#33" y="56.446"/><use xlink:href="#34" y="58.617"/><use xlink:href="#35" y="60.788"/><use xlink:href="#1" y="62.959"/><use xlink:href="#1" y="65.13"/></svg><svg x="6156"><use xlink:href="#a"/><use xlink:href="#b" x="-.004" y="65.105"/><use xlink:href="#13"/><use xlink:href="#14" y="2.171"/><use xlink:href="#15" y="4.342"/><use xlink:href="#16" y="6.513"/><use xlink:href="#17" y="8.684"/><use xlink:href="#18" y="10.855"/><use xlink:href="#19" y="13.026"/><use xlink:href="#20" y="15.197"/><use xlink:href="#21" y="17.368"/><use xlink:href="#22" y="19.539"/><use xlink:href="#23" y="21.71"/><use xlink:href="#24" y="23.881"/><use xlink:href="#25" y="26.052"/><use xlink:href="#26" y="30.394"/><use xlink:href="#27" y="34.736"/><use xlink:href="#28" y="39.078"/><use xlink:href="#29" y="43.42"/><use xlink:href="#30" y="45.591"/><use xlink:href="#31" y="47.762"/><use xlink:href="#32" y="52.104"/><use xlink:href="#33" y="54.275"/><use xlink:href="#34" y="56.446"/><use xlink:href="#35" y="58.617"/><use xlink:href="#1" y="60.788"/><text y="64.629" class="c">$</text><text x="2.004" y="64.629" class="d">logout</text></svg></svg></g></g></svg></svg>